<svg xmlns="http://www.w3.org/2000/svg" viewBox="0 0 32 32"><defs><style>.cls-1{fill:#b5e5ff;}.cls-2{fill:#fe4030;}.cls-3{fill:#3e4eb7;}</style></defs><title>note android app aplication phone</title><g id="note_android_app_aplication_phone" data-name="note android app aplication phone"><path class="cls-1" d="M30.56,8.47a8,8,0,0,0-7-7,64.29,64.29,0,0,0-15.06,0,8,8,0,0,0-7,7,64.29,64.29,0,0,0,0,15.06,8,8,0,0,0,7,7,64.29,64.29,0,0,0,15.06,0,8,8,0,0,0,7-7A64.29,64.29,0,0,0,30.56,8.47Z"/><path class="cls-2" d="M23.53,1.44a64.29,64.29,0,0,0-15.06,0A8,8,0,0,0,1.75,7h28.5A8,8,0,0,0,23.53,1.44Z"/><path class="cls-3" d="M25,13H11a1,1,0,0,1,0-2H25a1,1,0,0,1,0,2Z"/><path class="cls-3" d="M25,19H7a1,1,0,0,1,0-2H25a1,1,0,0,1,0,2Z"/><path class="cls-3" d="M21,25H7a1,1,0,0,1,0-2H21a1,1,0,0,1,0,2Z"/></g></svg>